<?xml version="1.0"?>
<svg xmlns="http://www.w3.org/2000/svg" xmlns:xlink="http://www.w3.org/1999/xlink" version="1.1" viewBox="0 0 210 210" width="100px" height="100px"><g fill="none" fill-rule="nonzero" stroke="none" stroke-width="1" stroke-linecap="butt" stroke-linejoin="miter" stroke-miterlimit="10" stroke-dasharray="" stroke-dashoffset="0" font-family="none" font-weight="none" font-size="none" text-anchor="none" style="mix-blend-mode: normal"><path d="M0,210v-210h210v210z" fill="none"/><g fill="#2c3e50"><g id="surface1"><path d="M67.54453,16.86563c-2.31328,0.16406 -4.57734,0.75469 -6.64453,1.80469c-4.29844,2.19844 -7.02188,6.31641 -8.54766,11.07422c-1.54219,4.75781 -2.06719,10.31953 -1.95234,16.52109c0.13125,7.35 1.24687,15.65156 3.05156,24.33047c-6.90703,1.29609 -13.23984,2.95313 -18.85078,4.93828c-7.49766,2.64141 -13.73203,5.85703 -18.375,9.82734c-4.64297,3.95391 -7.79297,8.925 -8.08828,14.56875c-0.31172,5.85703 2.96953,11.04141 7.38281,15.37266c4.42969,4.31484 10.25391,7.95703 16.55391,10.41797c1.41094,0.57422 3.00234,0.34453 4.2,-0.60703c1.18125,-0.93516 1.77188,-2.44453 1.54219,-3.95391c-0.24609,-1.49297 -1.26328,-2.73984 -2.69063,-3.28125c-5.28281,-2.05078 -10.30313,-5.21719 -13.73203,-8.58047c-3.4125,-3.36328 -4.9875,-6.74297 -4.85625,-8.94141c0.14766,-2.82188 1.65703,-5.64375 5.15156,-8.61328c3.47813,-2.98594 8.85938,-5.88984 15.70078,-8.28516c5.20078,-1.8375 11.25469,-3.4125 17.94844,-4.64297c1.93594,7.62891 4.31484,15.42188 7.12031,23.08359c-13.55156,24.34688 -20.7375,45.9375 -20.45859,61.96641c0.16406,9.86016 3.69141,17.98125 10.30313,22.27969c4.51172,2.92031 9.94219,4.01953 15.60234,2.87109c5.66016,-1.14844 11.58281,-4.23281 18.52266,-9.20391c1.26328,-0.85313 1.95234,-2.31328 1.82109,-3.83906c-0.13125,-1.50938 -1.08281,-2.83828 -2.46094,-3.44531c-1.39453,-0.62344 -3.00234,-0.45938 -4.21641,0.45937c-6.44766,4.57734 -11.50078,7.02187 -15.33984,7.80937c-3.83906,0.77109 -6.41484,0.21328 -9.33516,-1.70625c-3.72422,-2.41172 -6.36563,-7.36641 -6.49687,-15.35625c-0.21328,-12.14062 5.21719,-30.43359 16.07813,-51.53203c1.41094,3.39609 2.8875,6.72656 4.44609,9.975c11.20547,23.54297 25.31484,42.82031 39.06328,55.40391c6.87422,6.28359 13.65,10.91016 20.17969,13.46953c6.52969,2.55937 13.10859,3.08437 18.65391,0.2625l0.22969,-0.13125l0.21328,-0.13125c4.70859,-3.18281 7.62891,-8.44922 9.22031,-14.76562c1.575,-6.3 1.91953,-13.79766 1.18125,-22.24688c-1.46016,-16.88203 -7.25156,-37.57031 -17.25938,-59.21016c-0.96797,-2.1 -3.46172,-3.01875 -5.57812,-2.03437c-2.1,0.96797 -3.01875,3.46172 -2.03437,5.57813c9.64687,20.88516 15.15937,40.85156 16.50469,56.40469c0.67266,7.77656 0.29531,14.4375 -0.96797,19.45781c-1.23047,4.87266 -3.23203,7.95703 -5.56172,9.64687c-2.77266,1.29609 -6.51328,1.32891 -11.53359,-0.65625c-5.11875,-2.01797 -11.23828,-6.05391 -17.5875,-11.86172c-12.68203,-11.59922 -26.34844,-30.13828 -37.16016,-52.79531c-2.41172,-5.10234 -4.65937,-10.5 -6.75937,-15.99609c2.55938,-4.47891 5.26641,-9.03984 8.28516,-13.69922c3.00234,-4.61016 6.08672,-9.02344 9.23672,-13.20703c1.05,-0.01641 2.1,-0.06562 3.16641,-0.06562c4.51172,-0.01641 9.15469,0.11484 13.87969,0.36094c25.15078,1.3125 47.74219,6.13594 63.55781,12.73125c7.92422,3.29766 14.12578,7.05469 18.04688,10.7625c3.92109,3.70781 5.44688,7.07109 5.29922,10.17188c-0.16406,2.83828 -1.46016,5.59453 -4.42969,8.48203c-2.98594,2.8875 -7.64531,5.75859 -13.87969,8.17031c-1.46016,0.50859 -2.54297,1.75547 -2.78906,3.28125c-0.2625,1.52578 0.32813,3.06797 1.55859,4.01953c1.21406,0.93516 2.83828,1.14844 4.24922,0.54141c6.98906,-2.72344 12.61641,-6.00469 16.71797,-9.975c4.08516,-3.98672 6.67734,-8.84297 6.95625,-14.09297c0.31172,-6.21797 -2.8875,-11.94375 -7.92422,-16.71797c-5.02031,-4.75781 -12.02578,-8.84297 -20.55703,-12.40313c-17.09531,-7.12031 -40.425,-12.00937 -66.37969,-13.35469c-3.675,-0.19688 -7.26797,-0.24609 -10.86094,-0.29531c6.92344,-8.38359 13.97813,-15.68438 20.75391,-21.54141c12.09141,-10.40156 23.46094,-16.07812 30.53203,-16.34062h0.01641c2.625,-0.09844 4.59375,0.42656 6.23438,1.47656c5.31563,3.46172 9.77813,12.73125 2.52656,25.88906c-0.80391,1.32891 -0.82031,2.98594 -0.03281,4.31484c0.77109,1.32891 2.21484,2.13281 3.75703,2.08359c1.54219,-0.06562 2.93672,-0.95156 3.62578,-2.32969c8.85938,-16.07812 4.08516,-30.90937 -5.29922,-36.99609h-0.01641c-3.24844,-2.11641 -7.13672,-2.98594 -11.10703,-2.83828h-0.01641c-10.74609,0.41016 -22.87031,7.33359 -35.7,18.375c-8.64609,7.46484 -17.53828,16.96406 -26.08594,27.97266c-8.17031,0.2625 -15.96328,0.90234 -23.23125,1.90313c-1.78828,-8.43281 -2.90391,-16.38984 -3.01875,-23.11641c-0.09844,-5.62734 0.44297,-10.40156 1.54219,-13.81406c1.09922,-3.39609 2.57578,-5.23359 4.36406,-6.15234c1.05,-0.525 2.14922,-0.83672 3.46172,-0.93516c4.29844,-0.32812 12.73125,4.28203 21.54141,11.59922c1.16484,0.98438 2.75625,1.26328 4.16719,0.73828c1.42734,-0.50859 2.46094,-1.75547 2.70703,-3.24844c0.24609,-1.49297 -0.32812,-3.00234 -1.49297,-3.95391c-9.28594,-7.69453 -18.19453,-14.20781 -27.54609,-13.50234zM78.56953,76.05938c-1.88672,2.69062 -3.75703,5.41406 -5.59453,8.25234c-1.73906,2.67422 -3.31406,5.31562 -4.92187,7.95703c-1.64062,-4.97109 -3.05156,-9.89297 -4.31484,-14.76562c4.725,-0.63984 9.67969,-1.11562 14.83125,-1.44375zM105,92.4c-6.95625,0 -12.6,5.64375 -12.6,12.6c0,6.95625 5.64375,12.6 12.6,12.6c6.95625,0 12.6,-5.64375 12.6,-12.6c0,-6.95625 -5.64375,-12.6 -12.6,-12.6z"/></g></g></g></svg>
